<svg height="1758" width="720" xmlns="http://www.w3.org/2000/svg">
<rect height="1758" fill="#555" width="720"></rect>
<text fill="#7f7" font-family="Courier New" font-size="12" xml:space="preserve">
<tspan x="10" y="26">24 megabytes installed</tspan>
<tspan x="10" y="42"></tspan>
<tspan x="10" y="58">node_modules</tspan>
<tspan x="10" y="74">└─┬ jscs@3.0.7 </tspan>
<tspan x="10" y="90">  ├─┬ chalk@1.1.3 </tspan>
<tspan x="10" y="106">  │ ├── ansi-styles@2.2.1 </tspan>
<tspan x="10" y="122">  │ ├── escape-string-regexp@1.0.5 </tspan>
<tspan x="10" y="138">  │ ├─┬ has-ansi@2.0.0 </tspan>
<tspan x="10" y="154">  │ │ └── ansi-regex@2.1.1 </tspan>
<tspan x="10" y="170">  │ ├── strip-ansi@3.0.1 </tspan>
<tspan x="10" y="186">  │ └── supports-color@2.0.0 </tspan>
<tspan x="10" y="202">  ├─┬ cli-table@0.3.1 </tspan>
<tspan x="10" y="218">  │ └── colors@1.0.3 </tspan>
<tspan x="10" y="234">  ├─┬ commander@2.9.0 </tspan>
<tspan x="10" y="250">  │ └── graceful-readlink@1.0.1 </tspan>
<tspan x="10" y="266">  ├─┬ cst@0.4.9 </tspan>
<tspan x="10" y="282">  │ ├─┬ babel-runtime@6.23.0 </tspan>
<tspan x="10" y="298">  │ │ ├── core-js@2.4.1 </tspan>
<tspan x="10" y="314">  │ │ └── regenerator-runtime@0.10.3 </tspan>
<tspan x="10" y="330">  │ ├── babylon@6.16.1 </tspan>
<tspan x="10" y="346">  │ └─┬ source-map-support@0.4.14 </tspan>
<tspan x="10" y="362">  │   └── source-map@0.5.6 </tspan>
<tspan x="10" y="378">  ├── estraverse@4.2.0 </tspan>
<tspan x="10" y="394">  ├── exit@0.1.2 </tspan>
<tspan x="10" y="410">  ├─┬ glob@5.0.15 </tspan>
<tspan x="10" y="426">  │ ├─┬ inflight@1.0.6 </tspan>
<tspan x="10" y="442">  │ │ └── wrappy@1.0.2 </tspan>
<tspan x="10" y="458">  │ ├── inherits@2.0.3 </tspan>
<tspan x="10" y="474">  │ ├── once@1.4.0 </tspan>
<tspan x="10" y="490">  │ └── path-is-absolute@1.0.1 </tspan>
<tspan x="10" y="506">  ├─┬ htmlparser2@3.8.3 </tspan>
<tspan x="10" y="522">  │ ├── domelementtype@1.3.0 </tspan>
<tspan x="10" y="538">  │ ├── domhandler@2.3.0 </tspan>
<tspan x="10" y="554">  │ ├─┬ domutils@1.5.1 </tspan>
<tspan x="10" y="570">  │ │ └─┬ dom-serializer@0.1.0 </tspan>
<tspan x="10" y="586">  │ │   ├── domelementtype@1.1.3 </tspan>
<tspan x="10" y="602">  │ │   └── entities@1.1.1 </tspan>
<tspan x="10" y="618">  │ ├── entities@1.0.0 </tspan>
<tspan x="10" y="634">  │ └─┬ readable-stream@1.1.14 </tspan>
<tspan x="10" y="650">  │   ├── core-util-is@1.0.2 </tspan>
<tspan x="10" y="666">  │   ├── isarray@0.0.1 </tspan>
<tspan x="10" y="682">  │   └── string_decoder@0.10.31 </tspan>
<tspan x="10" y="698">  ├─┬ js-yaml@3.4.6 </tspan>
<tspan x="10" y="714">  │ ├─┬ argparse@1.0.9 </tspan>
<tspan x="10" y="730">  │ │ └── sprintf-js@1.0.3 </tspan>
<tspan x="10" y="746">  │ ├── esprima@2.7.3 </tspan>
<tspan x="10" y="762">  │ └── inherit@2.2.6 </tspan>
<tspan x="10" y="778">  ├─┬ jscs-jsdoc@2.0.0 </tspan>
<tspan x="10" y="794">  │ ├─┬ comment-parser@0.3.1 </tspan>
<tspan x="10" y="810">  │ │ └─┬ readable-stream@2.2.9 </tspan>
<tspan x="10" y="826">  │ │   ├── buffer-shims@1.0.0 </tspan>
<tspan x="10" y="842">  │ │   ├── isarray@1.0.0 </tspan>
<tspan x="10" y="858">  │ │   ├── process-nextick-args@1.0.7 </tspan>
<tspan x="10" y="874">  │ │   ├── string_decoder@1.0.0 </tspan>
<tspan x="10" y="890">  │ │   └── util-deprecate@1.0.2 </tspan>
<tspan x="10" y="906">  │ └── jsdoctypeparser@1.2.0 </tspan>
<tspan x="10" y="922">  ├── jscs-preset-wikimedia@1.0.0 </tspan>
<tspan x="10" y="938">  ├─┬ jsonlint@1.6.2 </tspan>
<tspan x="10" y="954">  │ ├── JSV@4.0.2 </tspan>
<tspan x="10" y="970">  │ └─┬ nomnom@1.8.1 </tspan>
<tspan x="10" y="986">  │   ├─┬ chalk@0.4.0 </tspan>
<tspan x="10" y="1002">  │   │ ├── ansi-styles@1.0.0 </tspan>
<tspan x="10" y="1018">  │   │ ├── has-color@0.1.7 </tspan>
<tspan x="10" y="1034">  │   │ └── strip-ansi@0.1.1 </tspan>
<tspan x="10" y="1050">  │   └── underscore@1.6.0 </tspan>
<tspan x="10" y="1066">  ├── lodash@3.10.1 </tspan>
<tspan x="10" y="1082">  ├─┬ minimatch@3.0.3 </tspan>
<tspan x="10" y="1098">  │ └─┬ brace-expansion@1.1.7 </tspan>
<tspan x="10" y="1114">  │   ├── balanced-match@0.4.2 </tspan>
<tspan x="10" y="1130">  │   └── concat-map@0.0.1 </tspan>
<tspan x="10" y="1146">  ├── natural-compare@1.2.2 </tspan>
<tspan x="10" y="1162">  ├── pathval@0.1.1 </tspan>
<tspan x="10" y="1178">  ├─┬ prompt@0.2.14 </tspan>
<tspan x="10" y="1194">  │ ├── pkginfo@0.4.0 </tspan>
<tspan x="10" y="1210">  │ ├─┬ read@1.0.7 </tspan>
<tspan x="10" y="1226">  │ │ └── mute-stream@0.0.7 </tspan>
<tspan x="10" y="1242">  │ ├── revalidator@0.1.8 </tspan>
<tspan x="10" y="1258">  │ ├─┬ utile@0.2.1 </tspan>
<tspan x="10" y="1274">  │ │ ├── async@0.2.10 </tspan>
<tspan x="10" y="1290">  │ │ ├── deep-equal@1.0.1 </tspan>
<tspan x="10" y="1306">  │ │ ├── i@0.3.5 </tspan>
<tspan x="10" y="1322">  │ │ ├─┬ mkdirp@0.5.1 </tspan>
<tspan x="10" y="1338">  │ │ │ └── minimist@0.0.8 </tspan>
<tspan x="10" y="1354">  │ │ ├── ncp@0.4.2 </tspan>
<tspan x="10" y="1370">  │ │ └─┬ rimraf@2.6.1 </tspan>
<tspan x="10" y="1386">  │ │   └── glob@7.1.1 </tspan>
<tspan x="10" y="1402">  │ └─┬ winston@0.8.3 </tspan>
<tspan x="10" y="1418">  │   ├── colors@0.6.2 </tspan>
<tspan x="10" y="1434">  │   ├── cycle@1.0.3 </tspan>
<tspan x="10" y="1450">  │   ├── eyes@0.1.8 </tspan>
<tspan x="10" y="1466">  │   ├── isstream@0.1.2 </tspan>
<tspan x="10" y="1482">  │   ├── pkginfo@0.3.1 </tspan>
<tspan x="10" y="1498">  │   └── stack-trace@0.0.9 </tspan>
<tspan x="10" y="1514">  ├── reserved-words@0.1.1 </tspan>
<tspan x="10" y="1530">  ├─┬ resolve@1.3.2 </tspan>
<tspan x="10" y="1546">  │ └── path-parse@1.0.5 </tspan>
<tspan x="10" y="1562">  ├─┬ strip-bom@2.0.0 </tspan>
<tspan x="10" y="1578">  │ └── is-utf8@0.2.1 </tspan>
<tspan x="10" y="1594">  ├── strip-json-comments@1.0.4 </tspan>
<tspan x="10" y="1610">  ├── to-double-quotes@2.0.0 </tspan>
<tspan x="10" y="1626">  ├── to-single-quotes@2.0.1 </tspan>
<tspan x="10" y="1642">  ├── vow@0.4.15 </tspan>
<tspan x="10" y="1658">  ├─┬ vow-fs@0.3.6 </tspan>
<tspan x="10" y="1674">  │ ├─┬ glob@7.1.1 </tspan>
<tspan x="10" y="1690">  │ │ └── fs.realpath@1.0.0 </tspan>
<tspan x="10" y="1706">  │ ├── uuid@2.0.3 </tspan>
<tspan x="10" y="1722">  │ └── vow-queue@0.4.2 </tspan>
<tspan x="10" y="1738">  └── xmlbuilder@3.1.0</tspan>
</text>
</svg>
